# xmcd
#
# Track frame offsets: 
#        150
#        21286
#        49131
#        67839
#        79564
#        88909
#        119552
#        128530
#        147679
#        161474
#        171606
#        184056
#        211182
#        222784
#        234761
#        248847
#        265853
#        285289
#        297789
#        326929
#        338305
#
# Disc length: 4789 seconds
#
# Revision: 1
# Processed by: cddbd v1.5.2PL0 Copyright (c) Steve Scherf et al.
# Submitted via: ExactAudioCopy v0.99pb4
#
DISCID=2f12b315
DTITLE=Ray Charles - Selected Songs
DYEAR=2004
DGENRE=Blues Jazz
TTITLE0=01. WHAT'D I SAY (LIVE)
TTITLE1=02. I GOT A WOMAN
TTITLE2=03. IT'S COLD OUTSIDE(with Betty Carter)
TTITLE3=04. DON'T SET ME FREE
TTITLE4=05. DON'T TELL ME YOUR TROUBLES
TTITLE5=06. GEORGIA ON MY MIND
TTITLE6=07. HIT THE ROAD JACK
TTITLE7=08. I CAN'T STOP LOVING YOU
TTITLE8=09. I'M GOING DOWN TO THE RIVER
TTITLE9=10. I'M MOVIN' ON
TTITLE10=11. LEAVE MY WOMAN ALONE
TTITLE11=12. LIVING FOR THE CITY
TTITLE12=13. LONELY AVENUE
TTITLE13=14. MESS AROUND
TTITLE14=15. ONE MINT JULEP
TTITLE15=16. SUNSHINE
TTITLE16=17. TALKIN' 'BOUT YOU
TTITLE17=18. TELL ME TRUTH
TTITLE18=19. WHAT'D I SAY
TTITLE19=20. YOU BE MY BABY
TTITLE20=21. FOR MAMA
EXTD=
EXTT0=
EXTT1=
EXTT2=
EXTT3=
EXTT4=
EXTT5=
EXTT6=
EXTT7=
EXTT8=
EXTT9=
EXTT10=
EXTT11=
EXTT12=
EXTT13=
EXTT14=
EXTT15=
EXTT16=
EXTT17=
EXTT18=
EXTT19=
EXTT20=
PLAYORDER=
